<svg width="117" height="61" viewBox="0 0 117 61" fill="none" xmlns="http://www.w3.org/2000/svg">
<path d="M24.1823 3.18V7.62H6.00226V21.72H20.7623V26.16H6.00226V45H0.542265V3.18H24.1823ZM36.8366 0.599999V45H31.3766V0.599999H36.8366ZM44.7023 28.44C44.7023 25.08 45.3823 22.14 46.7423 19.62C48.1023 17.06 49.9623 15.08 52.3223 13.68C54.7223 12.28 57.3823 11.58 60.3023 11.58C63.1823 11.58 65.6823 12.2 67.8023 13.44C69.9223 14.68 71.5023 16.24 72.5423 18.12V12.12H78.0623V45H72.5423V38.88C71.4623 40.8 69.8423 42.4 67.6823 43.68C65.5623 44.92 63.0823 45.54 60.2423 45.54C57.3223 45.54 54.6823 44.82 52.3223 43.38C49.9623 41.94 48.1023 39.92 46.7423 37.32C45.3823 34.72 44.7023 31.76 44.7023 28.44ZM72.5423 28.5C72.5423 26.02 72.0423 23.86 71.0423 22.02C70.0423 20.18 68.6823 18.78 66.9623 17.82C65.2823 16.82 63.4223 16.32 61.3823 16.32C59.3423 16.32 57.4823 16.8 55.8023 17.76C54.1223 18.72 52.7823 20.12 51.7823 21.96C50.7823 23.8 50.2823 25.96 50.2823 28.44C50.2823 30.96 50.7823 33.16 51.7823 35.04C52.7823 36.88 54.1223 38.3 55.8023 39.3C57.4823 40.26 59.3423 40.74 61.3823 40.74C63.4223 40.74 65.2823 40.26 66.9623 39.3C68.6823 38.3 70.0423 36.88 71.0423 35.04C72.0423 33.16 72.5423 30.98 72.5423 28.5ZM116.209 12.12L96.4091 60.48H90.7691L97.2491 44.64L83.9891 12.12H90.0491L100.369 38.76L110.569 12.12H116.209Z" fill="white"/>
</svg>
