<svg width="261" height="66" viewBox="0 0 261 66" fill="none" xmlns="http://www.w3.org/2000/svg">
<path d="M58.1823 6.18V10.62H40.0023V24.72H54.7623V29.16H40.0023V48H34.5423V6.18H58.1823ZM70.8366 3.6V48H65.3766V3.6H70.8366ZM78.7023 31.44C78.7023 28.08 79.3823 25.14 80.7423 22.62C82.1023 20.06 83.9623 18.08 86.3223 16.68C88.7223 15.28 91.3823 14.58 94.3023 14.58C97.1823 14.58 99.6823 15.2 101.802 16.44C103.922 17.68 105.502 19.24 106.542 21.12V15.12H112.062V48H106.542V41.88C105.462 43.8 103.842 45.4 101.682 46.68C99.5623 47.92 97.0823 48.54 94.2423 48.54C91.3223 48.54 88.6823 47.82 86.3223 46.38C83.9623 44.94 82.1023 42.92 80.7423 40.32C79.3823 37.72 78.7023 34.76 78.7023 31.44ZM106.542 31.5C106.542 29.02 106.042 26.86 105.042 25.02C104.042 23.18 102.682 21.78 100.962 20.82C99.2823 19.82 97.4223 19.32 95.3823 19.32C93.3423 19.32 91.4823 19.8 89.8023 20.76C88.1223 21.72 86.7823 23.12 85.7823 24.96C84.7823 26.8 84.2823 28.96 84.2823 31.44C84.2823 33.96 84.7823 36.16 85.7823 38.04C86.7823 39.88 88.1223 41.3 89.8023 42.3C91.4823 43.26 93.3423 43.74 95.3823 43.74C97.4223 43.74 99.2823 43.26 100.962 42.3C102.682 41.3 104.042 39.88 105.042 38.04C106.042 36.16 106.542 33.98 106.542 31.5ZM150.209 15.12L130.409 63.48H124.769L131.249 47.64L117.989 15.12H124.049L134.369 41.76L144.569 15.12H150.209Z" fill="#1E1E1E"/>
<path d="M76.5261 62.105C75.8861 62.105 75.3111 62.005 74.8011 61.805C74.2911 61.595 73.8861 61.295 73.5861 60.905C73.2861 60.505 73.1361 60.035 73.1361 59.495C73.1361 59.425 73.1461 59.3 73.1661 59.12H74.8611C74.8211 59.58 74.9561 59.965 75.2661 60.275C75.5761 60.575 76.0211 60.725 76.6011 60.725C77.2211 60.725 77.7061 60.6 78.0561 60.35C78.4061 60.09 78.5811 59.72 78.5811 59.24C78.5811 58.95 78.4911 58.705 78.3111 58.505C78.1411 58.295 77.9211 58.12 77.6511 57.98C77.3911 57.84 77.0261 57.675 76.5561 57.485C75.9361 57.225 75.4411 56.99 75.0711 56.78C74.7011 56.57 74.3811 56.28 74.1111 55.91C73.8511 55.54 73.7211 55.075 73.7211 54.515C73.7211 53.895 73.8811 53.355 74.2011 52.895C74.5211 52.425 74.9611 52.065 75.5211 51.815C76.0911 51.565 76.7311 51.44 77.4411 51.44C78.1511 51.44 78.7611 51.56 79.2711 51.8C79.7911 52.03 80.1811 52.36 80.4411 52.79C80.7111 53.21 80.8311 53.705 80.8011 54.275H79.0011C79.0411 53.865 78.9161 53.525 78.6261 53.255C78.3361 52.975 77.9161 52.835 77.3661 52.835C76.7861 52.835 76.3211 52.97 75.9711 53.24C75.6311 53.5 75.4611 53.855 75.4611 54.305C75.4611 54.585 75.5461 54.83 75.7161 55.04C75.8961 55.24 76.1211 55.415 76.3911 55.565C76.6611 55.705 77.0261 55.875 77.4861 56.075C78.1061 56.355 78.6011 56.605 78.9711 56.825C79.3511 57.045 79.6761 57.345 79.9461 57.725C80.2161 58.095 80.3511 58.555 80.3511 59.105C80.3511 59.685 80.1911 60.205 79.8711 60.665C79.5511 61.115 79.1011 61.47 78.5211 61.73C77.9411 61.98 77.2761 62.105 76.5261 62.105ZM85.5506 50.9L83.5856 62H81.8756L83.8406 50.9H85.5506ZM86.1456 57.83C86.2956 57 86.5956 56.265 87.0456 55.625C87.5056 54.985 88.0656 54.49 88.7256 54.14C89.3856 53.78 90.0756 53.6 90.7956 53.6C91.4456 53.6 91.9906 53.73 92.4306 53.99C92.8706 54.24 93.2006 54.555 93.4206 54.935L93.6306 53.735H95.3556L93.9006 62H92.1756L92.4006 60.77C92.0406 61.16 91.5856 61.485 91.0356 61.745C90.4956 62.005 89.9056 62.135 89.2656 62.135C88.6456 62.135 88.0906 61.995 87.6006 61.715C87.1206 61.435 86.7406 61.04 86.4606 60.53C86.1906 60.01 86.0556 59.415 86.0556 58.745C86.0556 58.445 86.0856 58.14 86.1456 57.83ZM92.9106 57.86C92.9506 57.67 92.9706 57.465 92.9706 57.245C92.9706 56.575 92.7706 56.05 92.3706 55.67C91.9806 55.28 91.4906 55.085 90.9006 55.085C90.4606 55.085 90.0306 55.195 89.6106 55.415C89.1906 55.625 88.8256 55.94 88.5156 56.36C88.2056 56.77 88.0006 57.26 87.9006 57.83C87.8606 58.02 87.8406 58.225 87.8406 58.445C87.8406 59.125 88.0356 59.665 88.4256 60.065C88.8256 60.455 89.3206 60.65 89.9106 60.65C90.3506 60.65 90.7806 60.54 91.2006 60.32C91.6206 60.1 91.9856 59.78 92.2956 59.36C92.6056 58.93 92.8106 58.43 92.9106 57.86ZM98.6817 53.735L99.8967 60.035L103.422 53.735H105.192L97.9917 65.885H96.2217L98.6067 61.865L96.7767 53.735H98.6817ZM113.379 51.575L111.534 62H109.824L111.669 51.575H113.379ZM116.329 59.705C116.309 59.845 116.299 59.935 116.299 59.975C116.299 60.185 116.364 60.34 116.494 60.44C116.624 60.53 116.839 60.575 117.139 60.575H118.189L117.934 62H116.584C115.924 62 115.419 61.87 115.069 61.61C114.719 61.34 114.544 60.915 114.544 60.335C114.544 60.115 114.564 59.905 114.604 59.705L115.414 55.13H114.439L114.679 53.735H115.669L116.029 51.68H117.754L117.394 53.735H119.389L119.149 55.13H117.139L116.329 59.705ZM137.217 62.135C136.517 62.135 135.902 61.99 135.372 61.7C134.842 61.41 134.427 61 134.127 60.47C133.837 59.94 133.692 59.335 133.692 58.655C133.692 57.725 133.907 56.875 134.337 56.105C134.777 55.335 135.377 54.725 136.137 54.275C136.907 53.825 137.762 53.6 138.702 53.6C139.402 53.6 140.022 53.75 140.562 54.05C141.102 54.34 141.522 54.75 141.822 55.28C142.132 55.8 142.287 56.405 142.287 57.095C142.287 58.025 142.062 58.875 141.612 59.645C141.162 60.415 140.552 61.025 139.782 61.475C139.012 61.915 138.157 62.135 137.217 62.135ZM137.427 60.695C137.997 60.695 138.517 60.535 138.987 60.215C139.467 59.885 139.842 59.455 140.112 58.925C140.382 58.385 140.517 57.81 140.517 57.2C140.517 56.51 140.322 55.98 139.932 55.61C139.542 55.23 139.052 55.04 138.462 55.04C137.882 55.04 137.362 55.205 136.902 55.535C136.452 55.855 136.097 56.29 135.837 56.84C135.587 57.38 135.462 57.96 135.462 58.58C135.462 59.25 135.642 59.77 136.002 60.14C136.372 60.51 136.847 60.695 137.427 60.695ZM152.257 53.735L150.802 62H149.092L149.257 61.025C148.927 61.365 148.527 61.635 148.057 61.835C147.597 62.025 147.122 62.12 146.632 62.12C145.762 62.12 145.067 61.885 144.547 61.415C144.027 60.945 143.767 60.28 143.767 59.42C143.767 59.19 143.792 58.915 143.842 58.595L144.697 53.735H146.392L145.582 58.34C145.542 58.62 145.522 58.82 145.522 58.94C145.522 59.49 145.672 59.91 145.972 60.2C146.282 60.49 146.707 60.635 147.247 60.635C147.877 60.635 148.412 60.45 148.852 60.08C149.292 59.7 149.582 59.155 149.722 58.445L150.547 53.735H152.257ZM156.118 55.19C156.458 54.69 156.858 54.3 157.318 54.02C157.788 53.74 158.308 53.6 158.878 53.6L158.563 55.37H158.128C157.468 55.37 156.938 55.535 156.538 55.865C156.138 56.195 155.858 56.765 155.698 57.575L154.918 62H153.208L154.663 53.735H156.373L156.118 55.19ZM179.182 51.575L174.247 62H172.312L171.502 54.11L167.797 62L165.877 62.015L164.767 51.575H166.582L167.242 60.065L171.082 51.575H173.002L173.692 60.02L177.352 51.575H179.182ZM179.062 57.83C179.212 57 179.512 56.265 179.962 55.625C180.422 54.985 180.982 54.49 181.642 54.14C182.302 53.78 182.992 53.6 183.712 53.6C184.362 53.6 184.907 53.73 185.347 53.99C185.787 54.24 186.117 54.555 186.337 54.935L186.547 53.735H188.272L186.817 62H185.092L185.317 60.77C184.957 61.16 184.502 61.485 183.952 61.745C183.412 62.005 182.822 62.135 182.182 62.135C181.562 62.135 181.007 61.995 180.517 61.715C180.037 61.435 179.657 61.04 179.377 60.53C179.107 60.01 178.972 59.415 178.972 58.745C178.972 58.445 179.002 58.14 179.062 57.83ZM185.827 57.86C185.867 57.67 185.887 57.465 185.887 57.245C185.887 56.575 185.687 56.05 185.287 55.67C184.897 55.28 184.407 55.085 183.817 55.085C183.377 55.085 182.947 55.195 182.527 55.415C182.107 55.625 181.742 55.94 181.432 56.36C181.122 56.77 180.917 57.26 180.817 57.83C180.777 58.02 180.757 58.225 180.757 58.445C180.757 59.125 180.952 59.665 181.342 60.065C181.742 60.455 182.237 60.65 182.827 60.65C183.267 60.65 183.697 60.54 184.117 60.32C184.537 60.1 184.902 59.78 185.212 59.36C185.522 58.93 185.727 58.43 185.827 57.86ZM191.598 53.735L192.813 60.035L196.338 53.735H198.108L190.908 65.885H189.138L191.523 61.865L189.693 53.735H191.598Z" fill="#1E1E1E"/>
</svg>
