<svg width="18" height="18" viewBox="0 0 18 18" fill="none" xmlns="http://www.w3.org/2000/svg">
<path fill-rule="evenodd" clip-rule="evenodd" d="M17.8394 7.20366H9.19066C9.19066 8.10367 9.19066 9.90187 9.18436 10.8019H14.1963C14.0046 11.701 13.3234 12.9601 12.3613 13.5946C12.3613 13.5946 12.3595 13.6 12.3577 13.5991C11.0788 14.4433 9.39045 14.635 8.13679 14.383C6.17214 13.9933 4.61788 12.5686 3.98609 10.7587C3.98969 10.756 3.99239 10.7308 3.99509 10.729C3.6 9.60577 3.6 8.10277 3.99509 7.20366C4.50358 5.55036 6.10554 4.04196 8.07199 3.62886C9.65505 3.29316 11.4406 3.65676 12.7537 4.88526C12.9283 4.71426 15.1701 2.52546 15.3384 2.34726C10.852 -1.71625 3.6693 -0.286146 0.98107 4.95996L0.97567 4.96986C0.332989 6.21764 -0.00156028 7.60119 5.47071e-06 9.00476C0.00157122 10.4083 0.339207 11.7911 0.98467 13.0375L0.97567 13.0447C1.56746 14.1851 2.39251 15.1883 3.39722 15.9892C4.40193 16.79 5.56385 17.3706 6.80752 17.6932C9.51645 18.4042 12.9661 17.9182 15.2763 15.8284L15.279 15.8311C17.2365 14.0689 18.455 11.0647 17.8394 7.20366Z" fill="black" fill-opacity="0.8"/>
</svg>
