<svg width="265" height="64" viewBox="0 0 265 64" fill="none" xmlns="http://www.w3.org/2000/svg">
<path d="M58.1823 6.18V10.62H40.0023V24.72H54.7623V29.16H40.0023V48H34.5423V6.18H58.1823ZM70.8366 3.6V48H65.3766V3.6H70.8366ZM78.7023 31.44C78.7023 28.08 79.3823 25.14 80.7423 22.62C82.1023 20.06 83.9623 18.08 86.3223 16.68C88.7223 15.28 91.3823 14.58 94.3023 14.58C97.1823 14.58 99.6823 15.2 101.802 16.44C103.922 17.68 105.502 19.24 106.542 21.12V15.12H112.062V48H106.542V41.88C105.462 43.8 103.842 45.4 101.682 46.68C99.5623 47.92 97.0823 48.54 94.2423 48.54C91.3223 48.54 88.6823 47.82 86.3223 46.38C83.9623 44.94 82.1023 42.92 80.7423 40.32C79.3823 37.72 78.7023 34.76 78.7023 31.44ZM106.542 31.5C106.542 29.02 106.042 26.86 105.042 25.02C104.042 23.18 102.682 21.78 100.962 20.82C99.2823 19.82 97.4223 19.32 95.3823 19.32C93.3423 19.32 91.4823 19.8 89.8023 20.76C88.1223 21.72 86.7823 23.12 85.7823 24.96C84.7823 26.8 84.2823 28.96 84.2823 31.44C84.2823 33.96 84.7823 36.16 85.7823 38.04C86.7823 39.88 88.1223 41.3 89.8023 42.3C91.4823 43.26 93.3423 43.74 95.3823 43.74C97.4223 43.74 99.2823 43.26 100.962 42.3C102.682 41.3 104.042 39.88 105.042 38.04C106.042 36.16 106.542 33.98 106.542 31.5ZM150.209 15.12L130.409 63.48H124.769L131.249 47.64L117.989 15.12H124.049L134.369 41.76L144.569 15.12H150.209Z" fill="white"/>
<path d="M80.5261 60.105C79.8861 60.105 79.3111 60.005 78.8011 59.805C78.2911 59.595 77.8861 59.295 77.5861 58.905C77.2861 58.505 77.1361 58.035 77.1361 57.495C77.1361 57.425 77.1461 57.3 77.1661 57.12H78.8611C78.8211 57.58 78.9561 57.965 79.2661 58.275C79.5761 58.575 80.0211 58.725 80.6011 58.725C81.2211 58.725 81.7061 58.6 82.0561 58.35C82.4061 58.09 82.5811 57.72 82.5811 57.24C82.5811 56.95 82.4911 56.705 82.3111 56.505C82.1411 56.295 81.9211 56.12 81.6511 55.98C81.3911 55.84 81.0261 55.675 80.5561 55.485C79.9361 55.225 79.4411 54.99 79.0711 54.78C78.7011 54.57 78.3811 54.28 78.1111 53.91C77.8511 53.54 77.7211 53.075 77.7211 52.515C77.7211 51.895 77.8811 51.355 78.2011 50.895C78.5211 50.425 78.9611 50.065 79.5211 49.815C80.0911 49.565 80.7311 49.44 81.4411 49.44C82.1511 49.44 82.7611 49.56 83.2711 49.8C83.7911 50.03 84.1811 50.36 84.4411 50.79C84.7111 51.21 84.8311 51.705 84.8011 52.275H83.0011C83.0411 51.865 82.9161 51.525 82.6261 51.255C82.3361 50.975 81.9161 50.835 81.3661 50.835C80.7861 50.835 80.3211 50.97 79.9711 51.24C79.6311 51.5 79.4611 51.855 79.4611 52.305C79.4611 52.585 79.5461 52.83 79.7161 53.04C79.8961 53.24 80.1211 53.415 80.3911 53.565C80.6611 53.705 81.0261 53.875 81.4861 54.075C82.1061 54.355 82.6011 54.605 82.9711 54.825C83.3511 55.045 83.6761 55.345 83.9461 55.725C84.2161 56.095 84.3511 56.555 84.3511 57.105C84.3511 57.685 84.1911 58.205 83.8711 58.665C83.5511 59.115 83.1011 59.47 82.5211 59.73C81.9411 59.98 81.2761 60.105 80.5261 60.105ZM89.5506 48.9L87.5856 60H85.8756L87.8406 48.9H89.5506ZM90.1456 55.83C90.2956 55 90.5956 54.265 91.0456 53.625C91.5056 52.985 92.0656 52.49 92.7256 52.14C93.3856 51.78 94.0756 51.6 94.7956 51.6C95.4456 51.6 95.9906 51.73 96.4306 51.99C96.8706 52.24 97.2006 52.555 97.4206 52.935L97.6306 51.735H99.3556L97.9006 60H96.1756L96.4006 58.77C96.0406 59.16 95.5856 59.485 95.0356 59.745C94.4956 60.005 93.9056 60.135 93.2656 60.135C92.6456 60.135 92.0906 59.995 91.6006 59.715C91.1206 59.435 90.7406 59.04 90.4606 58.53C90.1906 58.01 90.0556 57.415 90.0556 56.745C90.0556 56.445 90.0856 56.14 90.1456 55.83ZM96.9106 55.86C96.9506 55.67 96.9706 55.465 96.9706 55.245C96.9706 54.575 96.7706 54.05 96.3706 53.67C95.9806 53.28 95.4906 53.085 94.9006 53.085C94.4606 53.085 94.0306 53.195 93.6106 53.415C93.1906 53.625 92.8256 53.94 92.5156 54.36C92.2056 54.77 92.0006 55.26 91.9006 55.83C91.8606 56.02 91.8406 56.225 91.8406 56.445C91.8406 57.125 92.0356 57.665 92.4256 58.065C92.8256 58.455 93.3206 58.65 93.9106 58.65C94.3506 58.65 94.7806 58.54 95.2006 58.32C95.6206 58.1 95.9856 57.78 96.2956 57.36C96.6056 56.93 96.8106 56.43 96.9106 55.86ZM102.682 51.735L103.897 58.035L107.422 51.735H109.192L101.992 63.885H100.222L102.607 59.865L100.777 51.735H102.682ZM117.379 49.575L115.534 60H113.824L115.669 49.575H117.379ZM120.329 57.705C120.309 57.845 120.299 57.935 120.299 57.975C120.299 58.185 120.364 58.34 120.494 58.44C120.624 58.53 120.839 58.575 121.139 58.575H122.189L121.934 60H120.584C119.924 60 119.419 59.87 119.069 59.61C118.719 59.34 118.544 58.915 118.544 58.335C118.544 58.115 118.564 57.905 118.604 57.705L119.414 53.13H118.439L118.679 51.735H119.669L120.029 49.68H121.754L121.394 51.735H123.389L123.149 53.13H121.139L120.329 57.705ZM141.217 60.135C140.517 60.135 139.902 59.99 139.372 59.7C138.842 59.41 138.427 59 138.127 58.47C137.837 57.94 137.692 57.335 137.692 56.655C137.692 55.725 137.907 54.875 138.337 54.105C138.777 53.335 139.377 52.725 140.137 52.275C140.907 51.825 141.762 51.6 142.702 51.6C143.402 51.6 144.022 51.75 144.562 52.05C145.102 52.34 145.522 52.75 145.822 53.28C146.132 53.8 146.287 54.405 146.287 55.095C146.287 56.025 146.062 56.875 145.612 57.645C145.162 58.415 144.552 59.025 143.782 59.475C143.012 59.915 142.157 60.135 141.217 60.135ZM141.427 58.695C141.997 58.695 142.517 58.535 142.987 58.215C143.467 57.885 143.842 57.455 144.112 56.925C144.382 56.385 144.517 55.81 144.517 55.2C144.517 54.51 144.322 53.98 143.932 53.61C143.542 53.23 143.052 53.04 142.462 53.04C141.882 53.04 141.362 53.205 140.902 53.535C140.452 53.855 140.097 54.29 139.837 54.84C139.587 55.38 139.462 55.96 139.462 56.58C139.462 57.25 139.642 57.77 140.002 58.14C140.372 58.51 140.847 58.695 141.427 58.695ZM156.257 51.735L154.802 60H153.092L153.257 59.025C152.927 59.365 152.527 59.635 152.057 59.835C151.597 60.025 151.122 60.12 150.632 60.12C149.762 60.12 149.067 59.885 148.547 59.415C148.027 58.945 147.767 58.28 147.767 57.42C147.767 57.19 147.792 56.915 147.842 56.595L148.697 51.735H150.392L149.582 56.34C149.542 56.62 149.522 56.82 149.522 56.94C149.522 57.49 149.672 57.91 149.972 58.2C150.282 58.49 150.707 58.635 151.247 58.635C151.877 58.635 152.412 58.45 152.852 58.08C153.292 57.7 153.582 57.155 153.722 56.445L154.547 51.735H156.257ZM160.118 53.19C160.458 52.69 160.858 52.3 161.318 52.02C161.788 51.74 162.308 51.6 162.878 51.6L162.563 53.37H162.128C161.468 53.37 160.938 53.535 160.538 53.865C160.138 54.195 159.858 54.765 159.698 55.575L158.918 60H157.208L158.663 51.735H160.373L160.118 53.19ZM183.182 49.575L178.247 60H176.312L175.502 52.11L171.797 60L169.877 60.015L168.767 49.575H170.582L171.242 58.065L175.082 49.575H177.002L177.692 58.02L181.352 49.575H183.182ZM183.062 55.83C183.212 55 183.512 54.265 183.962 53.625C184.422 52.985 184.982 52.49 185.642 52.14C186.302 51.78 186.992 51.6 187.712 51.6C188.362 51.6 188.907 51.73 189.347 51.99C189.787 52.24 190.117 52.555 190.337 52.935L190.547 51.735H192.272L190.817 60H189.092L189.317 58.77C188.957 59.16 188.502 59.485 187.952 59.745C187.412 60.005 186.822 60.135 186.182 60.135C185.562 60.135 185.007 59.995 184.517 59.715C184.037 59.435 183.657 59.04 183.377 58.53C183.107 58.01 182.972 57.415 182.972 56.745C182.972 56.445 183.002 56.14 183.062 55.83ZM189.827 55.86C189.867 55.67 189.887 55.465 189.887 55.245C189.887 54.575 189.687 54.05 189.287 53.67C188.897 53.28 188.407 53.085 187.817 53.085C187.377 53.085 186.947 53.195 186.527 53.415C186.107 53.625 185.742 53.94 185.432 54.36C185.122 54.77 184.917 55.26 184.817 55.83C184.777 56.02 184.757 56.225 184.757 56.445C184.757 57.125 184.952 57.665 185.342 58.065C185.742 58.455 186.237 58.65 186.827 58.65C187.267 58.65 187.697 58.54 188.117 58.32C188.537 58.1 188.902 57.78 189.212 57.36C189.522 56.93 189.727 56.43 189.827 55.86ZM195.598 51.735L196.813 58.035L200.338 51.735H202.108L194.908 63.885H193.138L195.523 59.865L193.693 51.735H195.598Z" fill="white"/>
</svg>
