<svg width="60" height="60" viewBox="0 0 60 60" fill="none" xmlns="http://www.w3.org/2000/svg">
<path d="M30.0004 2.40039C14.7808 2.40039 2.40039 14.7808 2.40039 30.0004C2.40039 45.22 14.7808 57.6004 30.0004 57.6004C45.22 57.6004 57.6004 45.22 57.6004 30.0004C57.6004 24.5284 55.9927 19.4276 53.2363 15.134L51.5934 17.0746C53.8674 20.8594 55.2004 25.2724 55.2004 30.0004C55.2004 43.8952 43.8952 55.2004 30.0004 55.2004C16.1056 55.2004 4.80039 43.8952 4.80039 30.0004C4.80039 16.1056 16.1056 4.80039 30.0004 4.80039C36.532 4.80039 42.4731 7.32012 46.9551 11.4121L48.5254 9.55821C43.6234 5.11221 37.1224 2.40039 30.0004 2.40039ZM51.884 9.30508L28.6973 36.666L18.9379 27.5629L17.302 29.3184L28.9012 40.1371L53.7168 10.8566L51.884 9.30508Z" fill="#65BA67"/>
</svg>
